<svg xmlns="http://www.w3.org/2000/svg" width="22" height="25" viewBox="0 0 22 25"><defs><clipPath id="ftila"><path fill="#fff" d="M4.93 7a1 1 0 0 1 1-1h10a1 1 0 0 1 1 1v12a1 1 0 0 1-1 1h-10a1 1 0 0 1-1-1z"/></clipPath><clipPath id="ftilb"><path fill="#fff" d="M6.93 9a1 1 0 0 1 1-1h6a1 1 0 0 1 1 1v8a1 1 0 0 1-1 1h-6a1 1 0 0 1-1-1z"/></clipPath></defs><g><g><g><path fill="none" stroke="#4c4c4c" stroke-miterlimit="20" d="M3.93 3.5h13"/></g><g><path fill="none" stroke="#4c4c4c" stroke-miterlimit="20" d="M3.93 22.5h13"/></g><g><path fill="none" stroke="#4c4c4c" stroke-miterlimit="20" d="M14.93 1.62v0l2 1.94v0l-2 1.94v0"/></g><g><path fill="none" stroke="#4c4c4c" stroke-miterlimit="20" d="M5.93 20.5v0l-2 2v0l2 1.955v0"/></g><g><path fill="none" stroke="#4c4c4c" stroke-miterlimit="20" stroke-width="2" d="M4.93 7a1 1 0 0 1 1-1h10a1 1 0 0 1 1 1v12a1 1 0 0 1-1 1h-10a1 1 0 0 1-1-1z" clip-path="url(&quot;#ftila&quot;)"/></g><g><path fill="none" stroke="#4c4c4c" stroke-miterlimit="20" stroke-width="2" d="M6.93 9a1 1 0 0 1 1-1h6a1 1 0 0 1 1 1v8a1 1 0 0 1-1 1h-6a1 1 0 0 1-1-1z" clip-path="url(&quot;#ftilb&quot;)"/></g><g><path fill="none" stroke="#4c4c4c" stroke-miterlimit="20" d="M16.93 9.5h2.5"/></g><g><path fill="none" stroke="#4c4c4c" stroke-miterlimit="20" d="M2.43 9.5h2.5"/></g><g><path fill="none" stroke="#4c4c4c" stroke-miterlimit="20" d="M16.93 13h2.5"/></g><g><path fill="none" stroke="#4c4c4c" stroke-miterlimit="20" d="M2.43 13h2.5"/></g><g><path fill="none" stroke="#4c4c4c" stroke-miterlimit="20" d="M16.93 16.5h2.5"/></g><g><path fill="none" stroke="#4c4c4c" stroke-miterlimit="20" d="M2.43 16.5h2.5"/></g><g><path fill="#4c4c4c" d="M20.43 11a1.5 1.5 0 1 0 0-3 1.5 1.5 0 0 0 0 3z"/></g><g><path fill="#4c4c4c" d="M1.43 11a1.5 1.5 0 1 0 0-3 1.5 1.5 0 0 0 0 3z"/></g><g><path fill="#4c4c4c" d="M20.43 18a1.5 1.5 0 1 0 0-3 1.5 1.5 0 0 0 0 3z"/></g><g><path fill="#4c4c4c" d="M1.43 18a1.5 1.5 0 1 0 0-3 1.5 1.5 0 0 0 0 3z"/></g><g><path fill="#4c4c4c" d="M20.43 14.5a1.5 1.5 0 1 0 0-3 1.5 1.5 0 0 0 0 3z"/></g><g><path fill="#4c4c4c" d="M1.43 14.5a1.5 1.5 0 1 0 0-3 1.5 1.5 0 0 0 0 3z"/></g></g></g></svg>